<svg width="150" height="141" viewBox="0 0 150 141" fill="none" xmlns="http://www.w3.org/2000/svg">
<path d="M66.6716 120.769C68.5356 121.203 73.8239 121.498 74.8643 118.168" stroke="#021450" stroke-width="1.30043" stroke-linecap="round"/>
<path d="M69.4026 113.487C72.5236 116.478 77.4653 121.289 80.0661 117.388L81.6266 114.787" stroke="#021450" stroke-width="1.30043" stroke-linecap="round"/>
<path d="M69.4026 105.424C72.9571 108.805 83.8633 116.92 88.6489 114.007C89.5158 113.444 91.2758 111.64 91.3798 108.936" stroke="#021450" stroke-width="1.30043" stroke-linecap="round"/>
<path d="M78.3861 100.36C78.1032 100.139 77.6945 100.189 77.4733 100.472C77.2521 100.755 77.302 101.163 77.5849 101.385L78.3861 100.36ZM93.2004 98.9219L92.7912 99.4272L92.8083 99.441L92.8262 99.4537L93.2004 98.9219ZM77.8746 85.6725C77.5955 85.4464 77.1861 85.4894 76.9601 85.7685C76.734 86.0476 76.777 86.457 77.0561 86.683L77.8746 85.6725ZM77.5849 101.385C79.7986 103.116 83.3524 105.533 86.8299 107.154C88.5665 107.964 90.3179 108.592 91.8932 108.822C93.4568 109.051 94.9625 108.904 96.0774 108.012L95.2651 106.997C94.5595 107.562 93.4914 107.742 92.0816 107.536C90.6835 107.331 89.0619 106.76 87.3795 105.976C84.019 104.409 80.5504 102.053 78.3861 100.36L77.5849 101.385ZM96.0774 108.012C97.0943 107.199 97.6435 106.263 97.7935 105.263C97.9412 104.278 97.6896 103.314 97.2618 102.45C96.4141 100.738 94.7896 99.2452 93.5746 98.3902L92.8262 99.4537C93.9521 100.246 95.3836 101.588 96.0964 103.027C96.4488 103.739 96.6036 104.429 96.5075 105.07C96.4136 105.695 96.0688 106.354 95.2651 106.997L96.0774 108.012ZM93.6097 98.4166L77.8746 85.6725L77.0561 86.683L92.7912 99.4272L93.6097 98.4166Z" fill="#021450"/>
<path d="M33.0328 87.9429C32.7149 87.7759 32.3218 87.8983 32.1548 88.2162C31.9878 88.5341 32.1102 88.9272 32.4281 89.0942L33.0328 87.9429ZM37.542 94.6306L38.1662 94.4485L37.542 94.6306ZM41.7001 101.78C41.986 101.998 42.394 101.942 42.6113 101.656C42.8285 101.37 42.7729 100.962 42.487 100.745L41.7001 101.78ZM32.4281 89.0942C33.2996 89.5519 34.2591 90.402 35.0928 91.4519C35.9242 92.499 36.5924 93.6968 36.9178 94.8126L38.1662 94.4485C37.7829 93.1343 37.0206 91.7884 36.1112 90.6432C35.2039 89.5007 34.1121 88.5098 33.0328 87.9429L32.4281 89.0942ZM36.9178 94.8126C37.4027 96.4751 38.3176 97.9988 39.2358 99.2025C40.1525 100.404 41.103 101.327 41.7001 101.78L42.487 100.745C42.0005 100.375 41.1303 99.542 40.2698 98.4138C39.4107 97.2876 38.5917 95.9071 38.1662 94.4485L36.9178 94.8126Z" fill="#021450"/>
<path d="M71.5018 71.6969C71.8352 71.8302 72.2136 71.668 72.347 71.3346C72.4804 71.0012 72.3182 70.6228 71.9848 70.4894L71.5018 71.6969ZM48.2056 66.4116L47.8656 66.9658L47.8742 66.9711L47.883 66.9761L48.2056 66.4116ZM33.0705 56.3642C32.7644 56.1764 32.364 56.2724 32.1762 56.5785C31.9885 56.8846 32.0844 57.2849 32.3905 57.4727L33.0705 56.3642ZM71.9848 70.4894C70.6438 69.953 68.1323 69.1548 65.2316 68.6076C62.3364 68.0615 59.0007 67.7552 56.0332 68.2407L56.2432 69.5241C58.9975 69.0734 62.1639 69.3523 64.9906 69.8855C67.8118 70.4177 70.242 71.1929 71.5018 71.6969L71.9848 70.4894ZM56.0332 68.2407C53.2174 68.7015 52.105 68.4452 51.3775 68.0215C50.9841 67.7923 50.6707 67.4988 50.2248 67.102C49.7894 66.7145 49.27 66.2709 48.5282 65.847L47.883 66.9761C48.5066 67.3325 48.9462 67.705 49.3602 68.0734C49.7637 68.4324 50.1898 68.8346 50.723 69.1452C51.8486 69.8008 53.3371 69.9997 56.2432 69.5241L56.0332 68.2407ZM48.5456 65.8573L33.0705 56.3642L32.3905 57.4727L47.8656 66.9658L48.5456 65.8573Z" fill="#021450"/>
<path d="M92.55 70.3129L98.2719 67.3218M97.6217 103.994C100.015 103.37 103.994 99.8326 105.684 98.142L112.317 94.6308" stroke="#021450" stroke-width="1.30043" stroke-linecap="round"/>
<path d="M93.0703 84.2272C89.2558 86.5246 79.7019 89.3509 72.0034 83.3169" stroke="#021450" stroke-width="1.30043" stroke-linecap="round"/>
<path d="M72.5335 83.6932C72.7413 83.4004 72.6724 82.9945 72.3796 82.7867C72.0867 82.5788 71.6808 82.6478 71.473 82.9406L72.5335 83.6932ZM57.6985 85.9178L58.2284 86.2946L58.2576 86.2536L58.2801 86.2086L57.6985 85.9178ZM92.3206 70.921C92.6566 71.0478 93.0317 70.8781 93.1584 70.5421C93.2851 70.2061 93.1155 69.831 92.7795 69.7043L92.3206 70.921ZM71.473 82.9406C70.0609 84.9303 67.7002 87.8215 65.2189 90.0254C63.9766 91.1287 62.7307 92.0357 61.5801 92.5783C60.4188 93.126 59.4545 93.2568 58.7036 92.9802L58.254 94.2004C59.4797 94.652 60.8367 94.3667 62.1348 93.7545C63.4436 93.1373 64.7954 92.1408 66.0824 90.9977C68.6598 88.7086 71.0846 85.7348 72.5335 83.6932L71.473 82.9406ZM58.7036 92.9802C57.8324 92.6592 57.3354 92.208 57.0571 91.7261C56.7743 91.2365 56.6788 90.6479 56.7339 89.9939C56.8461 88.6629 57.5701 87.2204 58.2284 86.2946L57.1686 85.541C56.4399 86.5658 55.5774 88.2313 55.4381 89.8848C55.3675 90.723 55.4801 91.5958 55.931 92.3765C56.3863 93.165 57.1485 93.7931 58.254 94.2004L58.7036 92.9802ZM58.2801 86.2086C60.2544 82.2599 64.3432 76.7422 70.1563 73.0664C75.944 69.4067 83.4365 67.5705 92.3206 70.921L92.7795 69.7043C83.4576 66.1886 75.54 68.1236 69.4613 71.9673C63.408 75.795 59.174 81.513 57.117 85.627L58.2801 86.2086Z" fill="#021450"/>
<path d="M64.9812 121.94L64.6586 121.375L64.9812 121.94ZM61.47 114.267L60.8512 114.067L61.47 114.267ZM59.6554 118.915L59.0826 118.608L59.0697 118.632L59.0589 118.657L59.6554 118.915ZM65.3037 122.504C65.781 122.231 66.3172 121.584 66.7435 120.581C67.1798 119.555 67.528 118.095 67.5818 116.105L66.2818 116.07C66.2316 117.929 65.9079 119.222 65.5466 120.073C65.1753 120.946 64.7882 121.301 64.6586 121.375L65.3037 122.504ZM67.5818 116.105C67.6429 113.844 66.2377 112.517 64.6795 112.172C63.2004 111.845 61.3888 112.403 60.8512 114.067L62.0888 114.467C62.3491 113.661 63.3204 113.204 64.3987 113.442C65.3979 113.663 66.3247 114.482 66.2818 116.07L67.5818 116.105ZM59.0589 118.657C58.4242 120.121 59.291 121.602 60.5096 122.398C61.7682 123.221 63.5907 123.483 65.3037 122.504L64.6586 121.375C63.4131 122.087 62.1146 121.894 61.2209 121.31C60.2871 120.7 59.9703 119.824 60.252 119.174L59.0589 118.657ZM60.8512 114.067C60.5064 115.135 59.6797 117.496 59.0826 118.608L60.2282 119.223C60.8893 117.992 61.7481 115.522 62.0888 114.467L60.8512 114.067Z" fill="#021450"/>
<path d="M53.6673 114.007L53.1797 113.577H53.1797L53.6673 114.007ZM61.4698 110.886L60.8747 111.148L61.4698 110.886ZM53.1797 113.577C52.0865 114.816 51.5268 116.694 51.9016 118.205C52.0947 118.983 52.5463 119.69 53.324 120.112C54.0913 120.529 55.0847 120.62 56.2743 120.365L56.0018 119.093C55.0067 119.306 54.355 119.192 53.9447 118.969C53.5447 118.752 53.2859 118.384 53.1637 117.892C52.9078 116.86 53.2974 115.409 54.1548 114.437L53.1797 113.577ZM56.2743 120.365C58.7676 119.83 60.3508 117.671 61.2315 115.656C61.679 114.632 61.967 113.599 62.11 112.736C62.1814 112.305 62.2185 111.905 62.2181 111.563C62.2177 111.241 62.1851 110.897 62.0649 110.624L60.8747 111.148C60.8739 111.146 60.8774 111.154 60.8828 111.174C60.888 111.195 60.8939 111.223 60.8993 111.261C60.9103 111.337 60.9175 111.438 60.9176 111.564C60.918 111.818 60.89 112.144 60.8271 112.524C60.7013 113.282 60.4435 114.211 60.0399 115.135C59.2183 117.015 57.878 118.691 56.0018 119.093L56.2743 120.365ZM62.0649 110.624C61.8286 110.087 61.3129 109.362 60.4914 109.025C59.6052 108.66 58.544 108.816 57.4185 109.731L58.2388 110.74C59.0899 110.048 59.6543 110.086 59.9969 110.227C60.4043 110.395 60.721 110.799 60.8747 111.148L62.0649 110.624ZM57.4185 109.731C55.4334 111.345 53.8407 112.828 53.1797 113.577L54.1548 114.437C54.744 113.77 56.2706 112.34 58.2388 110.74L57.4185 109.731Z" fill="#021450"/>
<path d="M46.255 108.415L46.6986 108.891L46.7134 108.877L46.7273 108.862L46.255 108.415ZM56.7884 110.366L56.2069 110.075L56.2015 110.086L56.1965 110.097L56.7884 110.366ZM45.8113 107.94C44.69 108.987 44.041 110.718 44.3956 112.261C44.5773 113.051 45.0226 113.783 45.7826 114.317C46.5354 114.845 47.5535 115.15 48.8417 115.178L48.87 113.877C47.7654 113.853 47.0182 113.595 46.5298 113.252C46.0488 112.915 45.7772 112.467 45.663 111.97C45.426 110.938 45.8694 109.665 46.6986 108.891L45.8113 107.94ZM48.8417 115.178C53.9174 115.288 56.6356 112.274 57.3804 110.635L56.1965 110.097C55.6409 111.319 53.3654 113.975 48.87 113.877L48.8417 115.178ZM57.37 110.657C57.7877 109.821 58.2236 108.522 58.0643 107.255C57.9829 106.608 57.7438 105.957 57.2573 105.397C56.7712 104.838 56.0738 104.41 55.1439 104.148L54.7918 105.4C55.5264 105.607 55.9865 105.917 56.2757 106.25C56.5646 106.583 56.7189 106.979 56.774 107.417C56.8878 108.322 56.5694 109.35 56.2069 110.075L57.37 110.657ZM55.1439 104.148C53.2449 103.614 51.2624 104.208 49.6293 105.067C47.9834 105.932 46.5817 107.124 45.7826 107.969L46.7273 108.862C47.4455 108.103 48.7356 107.006 50.2346 106.218C51.7463 105.423 53.3617 104.998 54.7918 105.4L55.1439 104.148Z" fill="#021450"/>
<path d="M39.4927 103.603L39.0087 103.169L38.9923 103.187L38.9773 103.207L39.4927 103.603ZM48.4656 106.464L48.7814 107.033L48.791 107.027L48.4656 106.464ZM38.7124 107.115L38.0872 107.293L38.0963 107.325L38.1087 107.356L38.7124 107.115ZM39.9766 104.038C41.413 102.437 45.4933 99.5561 50.2616 100.724L50.5709 99.4607C45.1439 98.1317 40.6066 101.389 39.0087 103.169L39.9766 104.038ZM50.2616 100.724C51.4885 101.024 51.9352 101.417 52.0739 101.686C52.1909 101.914 52.1829 102.258 51.8426 102.799C51.5089 103.329 50.9369 103.906 50.2488 104.462C49.5683 105.012 48.8099 105.514 48.1402 105.902L48.791 107.027C49.5085 106.613 50.3246 106.073 51.0665 105.473C51.8008 104.88 52.4989 104.198 52.9432 103.491C53.381 102.796 53.6591 101.925 53.2304 101.092C52.8235 100.3 51.8928 99.7845 50.5709 99.4607L50.2616 100.724ZM48.1498 105.896C46.818 106.636 44.7603 107.544 42.9135 107.89C41.9872 108.063 41.173 108.083 40.5475 107.915C39.9523 107.755 39.5401 107.433 39.3161 106.873L38.1087 107.356C38.5089 108.357 39.2866 108.923 40.2104 109.171C41.104 109.411 42.1381 109.358 43.1526 109.168C45.1877 108.787 47.3823 107.81 48.7814 107.033L48.1498 105.896ZM39.3376 106.936C39.2061 106.476 39.1229 105.151 40.008 104L38.9773 103.207C37.7817 104.761 37.8719 106.54 38.0872 107.293L39.3376 106.936Z" fill="#021450"/>
<path d="M57.4385 53.2773C58.2187 55.0112 59.5452 59.2853 58.6089 62.5104" stroke="#021450" stroke-width="1.30043" stroke-linecap="round"/>
<path d="M62.2502 56.5283C62.467 57.482 62.9005 59.7794 62.9005 61.3399" stroke="#021450" stroke-width="1.30043" stroke-linecap="round"/>
<path d="M78.5054 47.2954L81.4964 57.8289" stroke="#021450" stroke-width="1.30043" stroke-linecap="round"/>
<path d="M86.9582 51.9766L86.0479 58.2186" stroke="#021450" stroke-width="1.30043" stroke-linecap="round"/>
<path d="M95.021 56.5283L90.4695 60.0395" stroke="#021450" stroke-width="1.30043" stroke-linecap="round"/>
<circle cx="5.03133" cy="67.9718" r="4.03133" fill="#021450"/>
<path d="M11.5904 67.6696C11.2332 67.7064 10.9734 68.0258 11.0102 68.383C11.047 68.7402 11.3663 69 11.7236 68.9632L11.5904 67.6696ZM24.3047 81.2299L24.2281 80.5842L24.2153 80.5857L24.2026 80.5877L24.3047 81.2299ZM2.17048 73.7199C2.17048 73.3608 1.87937 73.0696 1.52026 73.0696C1.16116 73.0696 0.87005 73.3608 0.87005 73.7199H2.17048ZM11.7236 68.9632C15.0867 68.6169 19.3961 68.6512 22.9984 69.4127C24.8005 69.7937 26.3882 70.3491 27.5869 71.1019C28.7807 71.8517 29.5456 72.7678 29.8102 73.8715L31.0748 73.5683C30.707 72.0343 29.66 70.8683 28.2785 70.0007C26.9019 69.1361 25.1511 68.5387 23.2674 68.1404C19.498 67.3436 15.0471 67.3137 11.5904 67.6696L11.7236 68.9632ZM29.8102 73.8715C30.1015 75.0866 30.0339 76.0699 29.7632 76.8667C29.4917 77.6658 29.0021 78.3177 28.3886 78.8458C27.1453 79.9159 25.4312 80.4414 24.2281 80.5842L24.3813 81.8755C25.7511 81.713 27.7383 81.1212 29.2369 79.8314C29.9943 79.1796 30.6357 78.341 30.9945 77.2851C31.354 76.2269 31.4158 74.9908 31.0748 73.5683L29.8102 73.8715ZM24.2026 80.5877C19.3465 81.3595 13.743 81.5546 9.38507 80.5504C7.20637 80.0484 5.39304 79.2588 4.13437 78.1419C2.8968 77.0437 2.17048 75.6098 2.17048 73.7199H0.87005C0.87005 75.9971 1.76732 77.7801 3.27124 79.1146C4.75407 80.4304 6.80015 81.2893 9.09309 81.8177C13.6784 82.8742 19.4671 82.6571 24.4067 81.872L24.2026 80.5877Z" fill="#021450"/>
<circle cx="9.19268" cy="75.5145" r="1.04034" stroke="#021450" stroke-width="0.780257"/>
<path d="M16.9953 75.5145C16.9953 76.0578 16.504 76.5548 15.8249 76.5548C15.1459 76.5548 14.6545 76.0578 14.6545 75.5145C14.6545 74.9711 15.1459 74.4741 15.8249 74.4741C16.504 74.4741 16.9953 74.9711 16.9953 75.5145Z" stroke="#021450" stroke-width="0.780257"/>
<circle cx="22.4571" cy="75.5145" r="1.04034" stroke="#021450" stroke-width="0.780257"/>
<circle cx="118.168" cy="116.608" r="3.77124" fill="#021450"/>
<path d="M124.3 113.227C123.941 113.227 123.65 113.518 123.65 113.877C123.65 114.236 123.941 114.527 124.3 114.527V113.227ZM136.196 113.877V114.527V113.877ZM139.885 128.84L139.235 128.85L139.885 128.84ZM121.165 131.961L121.178 131.311H121.165V131.961ZM116.738 127.371L117.388 127.371V127.371H116.738ZM117.388 123.24C117.388 122.881 117.097 122.59 116.738 122.59C116.379 122.59 116.088 122.881 116.088 123.24H117.388ZM124.3 114.527C125.436 114.527 127.657 114.527 129.953 114.527C132.25 114.527 134.667 114.527 136.196 114.527V113.227C134.667 113.227 132.25 113.227 129.953 113.227C127.657 113.227 125.436 113.227 124.3 113.227V114.527ZM136.196 114.527C137.444 114.527 138.107 114.681 138.512 115.091C138.927 115.512 139.235 116.374 139.235 118.283H140.535C140.535 116.337 140.244 114.996 139.438 114.178C138.62 113.348 137.438 113.227 136.196 113.227V114.527ZM139.235 118.283C139.235 122.019 139.204 126.885 139.235 128.85L140.535 128.83C140.505 126.878 140.535 122.04 140.535 118.283H139.235ZM139.235 128.85C139.244 129.435 139.102 130.002 138.763 130.434C138.437 130.851 137.869 131.218 136.872 131.314L136.996 132.609C138.286 132.484 139.205 131.979 139.787 131.235C140.358 130.506 140.548 129.622 140.535 128.83L139.235 128.85ZM136.872 131.314C134.634 131.53 125.507 131.404 121.178 131.311L121.151 132.611C125.429 132.703 134.661 132.834 136.996 132.609L136.872 131.314ZM121.165 131.311C120.467 131.311 119.51 131.11 118.744 130.529C118.01 129.973 117.388 129.022 117.388 127.371L116.088 127.371C116.088 129.404 116.88 130.749 117.959 131.566C119.007 132.36 120.263 132.612 121.165 132.612V131.311ZM117.388 127.371V123.24H116.088V127.371H117.388Z" fill="#021450"/>
<path d="M122.72 120.379L128.442 124.281" stroke="#021450" stroke-width="1.30043" stroke-linecap="round"/>
<path d="M128.442 124.28L138.845 114.657" stroke="#021450" stroke-width="1.30043" stroke-linecap="round"/>
<path d="M120.639 127.662L124.834 121.94M131.079 121.94L136.765 127.662" stroke="#021450" stroke-width="1.30043" stroke-linecap="round"/>
<path d="M120.055 53.0288L106.531 63.3022C89.365 76.4365 106.14 91.1747 112.383 94.5124L132.279 81.7683" stroke="#021450" stroke-width="1.30043" stroke-linecap="round"/>
<path d="M62.4839 19.7891C64.4345 19.529 68.6219 18.0465 69.7663 14.1973" stroke="#021450" stroke-width="1.30043" stroke-linecap="round"/>
<path d="M56.1118 16.6679C57.4122 16.7112 60.4032 16.0697 61.9637 13.1567" stroke="#021450" stroke-width="1.30043" stroke-linecap="round"/>
<path d="M50.26 11.9864C52.3407 11.5543 56.8662 10.2085 58.3227 8.28223" stroke="#021450" stroke-width="1.30043" stroke-linecap="round"/>
<path d="M69.0763 26.3293C55.9997 29.2478 43.8081 16.2302 38.9705 8.83507C38.7861 8.55321 38.9235 8.17927 39.2428 8.07218L59.8281 1.16862C60.0202 1.10421 60.2311 1.15687 60.3727 1.30177C67.2273 8.3176 79.9622 11.4092 86.6746 12.2533C87.1492 12.313 87.316 12.9302 86.9311 13.2141L69.2697 26.241C69.2123 26.2834 69.1459 26.3137 69.0763 26.3293Z" stroke="#021450" stroke-width="1.30043" stroke-linecap="round"/>
</svg>
